<?xml version="1.0" encoding="UTF-8" standalone="no"?>
<!DOCTYPE svg PUBLIC "-//W3C//DTD SVG 1.1//EN"
 "http://www.w3.org/Graphics/SVG/1.1/DTD/svg11.dtd">
<!-- Generated by graphviz version 2.42.4 (0)
 -->
<!-- Title: FSM Pages: 1 -->
<svg width="514pt" height="958pt"
 viewBox="0.00 0.00 514.00 958.00" xmlns="http://www.w3.org/2000/svg" xmlns:xlink="http://www.w3.org/1999/xlink">
<g id="graph0" class="graph" transform="scale(1 1) rotate(0) translate(4 954)">
<title>FSM</title>
<polygon fill="white" stroke="transparent" points="-4,4 -4,-954 510,-954 510,4 -4,4"/>
<text text-anchor="start" x="46.5" y="-935.8" font-family="Helvetica,sans-Serif" font-size="14.00"> &#160;&#160;&#160;&#160;&#160;&#160;&#160;</text>
<text text-anchor="start" x="83.5" y="-935.8" font-family="Helvetica,sans-Serif" font-weight="bold" font-size="14.00">FSM Supervisora · Máquina de Estados One&#45;Hot</text>
<text text-anchor="start" x="8" y="-921.8" font-family="Helvetica,sans-Serif" font-size="14.00"> &#160;&#160;&#160;&#160;&#160;&#160;&#160;Secuencia principal del bloque Supervisor (FSM / Task Planner) &#160;&#160;&#160;</text>
<!-- start -->
<g id="node1" class="node">
<title>start</title>
<ellipse fill="#111827" stroke="#111827" cx="357.5" cy="-907.5" rx="6.5" ry="6.5"/>
</g>
<!-- S0 -->
<g id="node2" class="node">
<title>S0</title>
<path fill="#f5f3ff" stroke="#7c3aed" d="M445.5,-860C445.5,-860 269.5,-860 269.5,-860 263.5,-860 257.5,-854 257.5,-848 257.5,-848 257.5,-818 257.5,-818 257.5,-812 263.5,-806 269.5,-806 269.5,-806 445.5,-806 445.5,-806 451.5,-806 457.5,-812 457.5,-818 457.5,-818 457.5,-848 457.5,-848 457.5,-854 451.5,-860 445.5,-860"/>
<text text-anchor="start" x="287.5" y="-842.4" font-family="Helvetica,sans-Serif" font-size="12.00"> &#160;&#160;&#160;&#160;&#160;&#160;&#160;</text>
<text text-anchor="start" x="318.5" y="-842.4" font-family="Helvetica,sans-Serif" font-weight="bold" font-size="12.00">S0 · SAFE_STOP</text>
<text text-anchor="start" x="295" y="-830.4" font-family="Helvetica,sans-Serif" font-size="12.00"> &#160;&#160;&#160;&#160;&#160;&#160;&#160;Q = 000000001</text>
<text text-anchor="start" x="270.5" y="-818.4" font-family="Helvetica,sans-Serif" font-size="12.00"> &#160;&#160;&#160;&#160;&#160;&#160;&#160;Todas las salidas en 0 &#160;&#160;&#160;</text>
</g>
<!-- start&#45;&gt;S0 -->
<g id="edge1" class="edge">
<title>start&#45;&gt;S0</title>
<path fill="none" stroke="#374151" stroke-width="1.4" d="M357.5,-900.81C357.5,-893.69 357.5,-880.91 357.5,-868.42"/>
<polygon fill="#374151" stroke="#374151" stroke-width="1.4" points="360.3,-868.32 357.5,-860.32 354.7,-868.32 360.3,-868.32"/>
</g>
<!-- S1 -->
<g id="node3" class="node">
<title>S1</title>
<path fill="#f5f3ff" stroke="#7c3aed" d="M477.5,-733C477.5,-733 237.5,-733 237.5,-733 231.5,-733 225.5,-727 225.5,-721 225.5,-721 225.5,-691 225.5,-691 225.5,-685 231.5,-679 237.5,-679 237.5,-679 477.5,-679 477.5,-679 483.5,-679 489.5,-685 489.5,-691 489.5,-691 489.5,-721 489.5,-721 489.5,-727 483.5,-733 477.5,-733"/>
<text text-anchor="start" x="273.5" y="-715.4" font-family="Helvetica,sans-Serif" font-size="12.00"> &#160;&#160;&#160;&#160;&#160;&#160;&#160;</text>
<text text-anchor="start" x="304.5" y="-715.4" font-family="Helvetica,sans-Serif" font-weight="bold" font-size="12.00">S1 · ESPERA / LISTO</text>
<text text-anchor="start" x="295" y="-703.4" font-family="Helvetica,sans-Serif" font-size="12.00"> &#160;&#160;&#160;&#160;&#160;&#160;&#160;Q = 000000010</text>
<text text-anchor="start" x="238.5" y="-691.4" font-family="Helvetica,sans-Serif" font-size="12.00"> &#160;&#160;&#160;&#160;&#160;&#160;&#160;Espera habilitación y nueva caja &#160;&#160;&#160;</text>
</g>
<!-- S0&#45;&gt;S1 -->
<g id="edge2" class="edge">
<title>S0&#45;&gt;S1</title>
<path fill="none" stroke="#374151" stroke-width="1.4" d="M357.5,-805.8C357.5,-787.05 357.5,-761.63 357.5,-741.27"/>
<polygon fill="#374151" stroke="#374151" stroke-width="1.4" points="360.3,-741.17 357.5,-733.17 354.7,-741.17 360.3,-741.17"/>
<text text-anchor="middle" x="398.5" y="-774" font-family="Helvetica,sans-Serif" font-size="10.00">habilitacion = 1</text>
<text text-anchor="middle" x="398.5" y="-763" font-family="Helvetica,sans-Serif" font-size="10.00">zona_segura = 1</text>
<text text-anchor="middle" x="398.5" y="-752" font-family="Helvetica,sans-Serif" font-size="10.00">paro = 0</text>
</g>
<!-- S2 -->
<g id="node4" class="node">
<title>S2</title>
<path fill="#f5f3ff" stroke="#7c3aed" d="M367,-636C367,-636 194,-636 194,-636 188,-636 182,-630 182,-624 182,-624 182,-594 182,-594 182,-588 188,-582 194,-582 194,-582 367,-582 367,-582 373,-582 379,-588 379,-594 379,-594 379,-624 379,-624 379,-630 373,-636 367,-636"/>
<text text-anchor="start" x="208" y="-618.4" font-family="Helvetica,sans-Serif" font-size="12.00"> &#160;&#160;&#160;&#160;&#160;&#160;&#160;</text>
<text text-anchor="start" x="239" y="-618.4" font-family="Helvetica,sans-Serif" font-weight="bold" font-size="12.00">S2 · MOVER A E1</text>
<text text-anchor="start" x="218" y="-606.4" font-family="Helvetica,sans-Serif" font-size="12.00"> &#160;&#160;&#160;&#160;&#160;&#160;&#160;Q = 000000100</text>
<text text-anchor="start" x="195" y="-594.4" font-family="Helvetica,sans-Serif" font-size="12.00"> &#160;&#160;&#160;&#160;&#160;&#160;&#160;orden_mover_T1 = 1 &#160;&#160;&#160;</text>
</g>
<!-- S1&#45;&gt;S2 -->
<g id="edge3" class="edge">
<title>S1&#45;&gt;S2</title>
<path fill="none" stroke="#374151" stroke-width="1.4" d="M303.24,-678.79C297.58,-674.2 292.46,-668.96 288.5,-663 284.84,-657.5 282.6,-650.97 281.26,-644.41"/>
<polygon fill="#374151" stroke="#374151" stroke-width="1.4" points="283.98,-643.65 280.02,-636.15 278.44,-644.48 283.98,-643.65"/>
<text text-anchor="middle" x="347.5" y="-655" font-family="Helvetica,sans-Serif" font-size="10.00">start_cycle / nueva_caja</text>
</g>
<!-- S3 -->
<g id="node5" class="node">
<title>S3</title>
<path fill="#f5f3ff" stroke="#7c3aed" d="M370.5,-539C370.5,-539 174.5,-539 174.5,-539 168.5,-539 162.5,-533 162.5,-527 162.5,-527 162.5,-497 162.5,-497 162.5,-491 168.5,-485 174.5,-485 174.5,-485 370.5,-485 370.5,-485 376.5,-485 382.5,-491 382.5,-497 382.5,-497 382.5,-527 382.5,-527 382.5,-533 376.5,-539 370.5,-539"/>
<text text-anchor="start" x="175.5" y="-521.4" font-family="Helvetica,sans-Serif" font-size="12.00"> &#160;&#160;&#160;&#160;&#160;&#160;&#160;</text>
<text text-anchor="start" x="206.5" y="-521.4" font-family="Helvetica,sans-Serif" font-weight="bold" font-size="12.00">S3 · ENSAMBLE ETAPA 1</text>
<text text-anchor="start" x="210" y="-509.4" font-family="Helvetica,sans-Serif" font-size="12.00"> &#160;&#160;&#160;&#160;&#160;&#160;&#160;Q = 000001000</text>
<text text-anchor="start" x="181" y="-497.4" font-family="Helvetica,sans-Serif" font-size="12.00"> &#160;&#160;&#160;&#160;&#160;&#160;&#160;orden_ensamble_1 = 1 &#160;&#160;&#160;</text>
</g>
<!-- S2&#45;&gt;S3 -->
<g id="edge4" class="edge">
<title>S2&#45;&gt;S3</title>
<path fill="none" stroke="#374151" stroke-width="1.4" d="M278.29,-581.79C277.39,-571.09 276.34,-558.58 275.38,-547.19"/>
<polygon fill="#374151" stroke="#374151" stroke-width="1.4" points="278.16,-546.86 274.7,-539.13 272.58,-547.33 278.16,-546.86"/>
<text text-anchor="middle" x="325.5" y="-558" font-family="Helvetica,sans-Serif" font-size="10.00">caja_en_estacion_1</text>
</g>
<!-- S4 -->
<g id="node6" class="node">
<title>S4</title>
<path fill="#f5f3ff" stroke="#7c3aed" d="M359,-442C359,-442 186,-442 186,-442 180,-442 174,-436 174,-430 174,-430 174,-400 174,-400 174,-394 180,-388 186,-388 186,-388 359,-388 359,-388 365,-388 371,-394 371,-400 371,-400 371,-430 371,-430 371,-436 365,-442 359,-442"/>
<text text-anchor="start" x="200" y="-424.4" font-family="Helvetica,sans-Serif" font-size="12.00"> &#160;&#160;&#160;&#160;&#160;&#160;&#160;</text>
<text text-anchor="start" x="231" y="-424.4" font-family="Helvetica,sans-Serif" font-weight="bold" font-size="12.00">S4 · MOVER A E2</text>
<text text-anchor="start" x="210" y="-412.4" font-family="Helvetica,sans-Serif" font-size="12.00"> &#160;&#160;&#160;&#160;&#160;&#160;&#160;Q = 000010000</text>
<text text-anchor="start" x="187" y="-400.4" font-family="Helvetica,sans-Serif" font-size="12.00"> &#160;&#160;&#160;&#160;&#160;&#160;&#160;orden_mover_T1 = 1 &#160;&#160;&#160;</text>
</g>
<!-- S3&#45;&gt;S4 -->
<g id="edge5" class="edge">
<title>S3&#45;&gt;S4</title>
<path fill="none" stroke="#374151" stroke-width="1.4" d="M272.5,-484.79C272.5,-474.09 272.5,-461.58 272.5,-450.19"/>
<polygon fill="#374151" stroke="#374151" stroke-width="1.4" points="275.3,-450.13 272.5,-442.13 269.7,-450.13 275.3,-450.13"/>
<text text-anchor="middle" x="328" y="-461" font-family="Helvetica,sans-Serif" font-size="10.00">ensamble_1_completo</text>
</g>
<!-- S5 -->
<g id="node7" class="node">
<title>S5</title>
<path fill="#f5f3ff" stroke="#7c3aed" d="M370.5,-345C370.5,-345 174.5,-345 174.5,-345 168.5,-345 162.5,-339 162.5,-333 162.5,-333 162.5,-303 162.5,-303 162.5,-297 168.5,-291 174.5,-291 174.5,-291 370.5,-291 370.5,-291 376.5,-291 382.5,-297 382.5,-303 382.5,-303 382.5,-333 382.5,-333 382.5,-339 376.5,-345 370.5,-345"/>
<text text-anchor="start" x="175.5" y="-327.4" font-family="Helvetica,sans-Serif" font-size="12.00"> &#160;&#160;&#160;&#160;&#160;&#160;&#160;</text>
<text text-anchor="start" x="206.5" y="-327.4" font-family="Helvetica,sans-Serif" font-weight="bold" font-size="12.00">S5 · ENSAMBLE ETAPA 2</text>
<text text-anchor="start" x="210" y="-315.4" font-family="Helvetica,sans-Serif" font-size="12.00"> &#160;&#160;&#160;&#160;&#160;&#160;&#160;Q = 000100000</text>
<text text-anchor="start" x="181" y="-303.4" font-family="Helvetica,sans-Serif" font-size="12.00"> &#160;&#160;&#160;&#160;&#160;&#160;&#160;orden_ensamble_2 = 1 &#160;&#160;&#160;</text>
</g>
<!-- S4&#45;&gt;S5 -->
<g id="edge6" class="edge">
<title>S4&#45;&gt;S5</title>
<path fill="none" stroke="#374151" stroke-width="1.4" d="M272.5,-387.79C272.5,-377.09 272.5,-364.58 272.5,-353.19"/>
<polygon fill="#374151" stroke="#374151" stroke-width="1.4" points="275.3,-353.13 272.5,-345.13 269.7,-353.13 275.3,-353.13"/>
<text text-anchor="middle" x="320.5" y="-364" font-family="Helvetica,sans-Serif" font-size="10.00">caja_en_estacion_2</text>
</g>
<!-- S6 -->
<g id="node8" class="node">
<title>S6</title>
<path fill="#f5f3ff" stroke="#7c3aed" d="M359,-248C359,-248 186,-248 186,-248 180,-248 174,-242 174,-236 174,-236 174,-206 174,-206 174,-200 180,-194 186,-194 186,-194 359,-194 359,-194 365,-194 371,-200 371,-206 371,-206 371,-236 371,-236 371,-242 365,-248 359,-248"/>
<text text-anchor="start" x="200" y="-230.4" font-family="Helvetica,sans-Serif" font-size="12.00"> &#160;&#160;&#160;&#160;&#160;&#160;&#160;</text>
<text text-anchor="start" x="231" y="-230.4" font-family="Helvetica,sans-Serif" font-weight="bold" font-size="12.00">S6 · MOVER A E3</text>
<text text-anchor="start" x="210" y="-218.4" font-family="Helvetica,sans-Serif" font-size="12.00"> &#160;&#160;&#160;&#160;&#160;&#160;&#160;Q = 001000000</text>
<text text-anchor="start" x="187" y="-206.4" font-family="Helvetica,sans-Serif" font-size="12.00"> &#160;&#160;&#160;&#160;&#160;&#160;&#160;orden_mover_T2 = 1 &#160;&#160;&#160;</text>
</g>
<!-- S5&#45;&gt;S6 -->
<g id="edge7" class="edge">
<title>S5&#45;&gt;S6</title>
<path fill="none" stroke="#374151" stroke-width="1.4" d="M272.5,-290.79C272.5,-280.09 272.5,-267.58 272.5,-256.19"/>
<polygon fill="#374151" stroke="#374151" stroke-width="1.4" points="275.3,-256.13 272.5,-248.13 269.7,-256.13 275.3,-256.13"/>
<text text-anchor="middle" x="328" y="-267" font-family="Helvetica,sans-Serif" font-size="10.00">ensamble_2_completo</text>
</g>
<!-- S7 -->
<g id="node9" class="node">
<title>S7</title>
<path fill="#f5f3ff" stroke="#7c3aed" d="M370.5,-151C370.5,-151 174.5,-151 174.5,-151 168.5,-151 162.5,-145 162.5,-139 162.5,-139 162.5,-109 162.5,-109 162.5,-103 168.5,-97 174.5,-97 174.5,-97 370.5,-97 370.5,-97 376.5,-97 382.5,-103 382.5,-109 382.5,-109 382.5,-139 382.5,-139 382.5,-145 376.5,-151 370.5,-151"/>
<text text-anchor="start" x="175.5" y="-133.4" font-family="Helvetica,sans-Serif" font-size="12.00"> &#160;&#160;&#160;&#160;&#160;&#160;&#160;</text>
<text text-anchor="start" x="206.5" y="-133.4" font-family="Helvetica,sans-Serif" font-weight="bold" font-size="12.00">S7 · ENSAMBLE ETAPA 3</text>
<text text-anchor="start" x="210" y="-121.4" font-family="Helvetica,sans-Serif" font-size="12.00"> &#160;&#160;&#160;&#160;&#160;&#160;&#160;Q = 010000000</text>
<text text-anchor="start" x="181" y="-109.4" font-family="Helvetica,sans-Serif" font-size="12.00"> &#160;&#160;&#160;&#160;&#160;&#160;&#160;orden_ensamble_3 = 1 &#160;&#160;&#160;</text>
</g>
<!-- S6&#45;&gt;S7 -->
<g id="edge8" class="edge">
<title>S6&#45;&gt;S7</title>
<path fill="none" stroke="#374151" stroke-width="1.4" d="M272.5,-193.79C272.5,-183.09 272.5,-170.58 272.5,-159.19"/>
<polygon fill="#374151" stroke="#374151" stroke-width="1.4" points="275.3,-159.13 272.5,-151.13 269.7,-159.13 275.3,-159.13"/>
<text text-anchor="middle" x="320.5" y="-170" font-family="Helvetica,sans-Serif" font-size="10.00">caja_en_estacion_3</text>
</g>
<!-- S8 -->
<g id="node10" class="node">
<title>S8</title>
<path fill="#f5f3ff" stroke="#7c3aed" d="M460,-54C460,-54 243,-54 243,-54 237,-54 231,-48 231,-42 231,-42 231,-12 231,-12 231,-6 237,0 243,0 243,0 460,0 460,0 466,0 472,-6 472,-12 472,-12 472,-42 472,-42 472,-48 466,-54 460,-54"/>
<text text-anchor="start" x="244" y="-36.4" font-family="Helvetica,sans-Serif" font-size="12.00"> &#160;&#160;&#160;&#160;&#160;&#160;&#160;</text>
<text text-anchor="start" x="275" y="-36.4" font-family="Helvetica,sans-Serif" font-weight="bold" font-size="12.00">S8 · SALIDA / FIN DE CICLO</text>
<text text-anchor="start" x="289" y="-24.4" font-family="Helvetica,sans-Serif" font-size="12.00"> &#160;&#160;&#160;&#160;&#160;&#160;&#160;Q = 100000000</text>
<text text-anchor="start" x="268.5" y="-12.4" font-family="Helvetica,sans-Serif" font-size="12.00"> &#160;&#160;&#160;&#160;&#160;&#160;&#160;orden_salida_T2 = 1 &#160;&#160;&#160;</text>
</g>
<!-- S7&#45;&gt;S8 -->
<g id="edge9" class="edge">
<title>S7&#45;&gt;S8</title>
<path fill="none" stroke="#374151" stroke-width="1.4" d="M280.68,-96.98C284.32,-87.88 289.22,-77.95 295.5,-70 298.39,-66.33 301.68,-62.82 305.18,-59.5"/>
<polygon fill="#374151" stroke="#374151" stroke-width="1.4" points="307.13,-61.51 311.23,-54.1 303.4,-57.34 307.13,-61.51"/>
<text text-anchor="middle" x="351" y="-73" font-family="Helvetica,sans-Serif" font-size="10.00">ensamble_3_completo</text>
</g>
<!-- S8&#45;&gt;S1 -->
<g id="edge10" class="edge">
<title>S8&#45;&gt;S1</title>
<path fill="none" stroke="#374151" stroke-width="1.4" d="M394.71,-54.21C400.51,-58.97 406,-64.26 410.5,-70 426.13,-89.94 431.5,-97.66 431.5,-123 431.5,-610 431.5,-610 431.5,-610 431.5,-635.34 425.61,-642.66 410.5,-663 407.87,-666.53 404.88,-669.93 401.68,-673.16"/>
<polygon fill="#374151" stroke="#374151" stroke-width="1.4" points="399.63,-671.25 395.74,-678.78 403.48,-675.32 399.63,-671.25"/>
<text text-anchor="middle" x="468" y="-364" font-family="Helvetica,sans-Serif" font-size="10.00">caja_finalizada</text>
</g>
<!-- note -->
<g id="node11" class="node">
<title>note</title>
<polygon fill="#fee2e2" stroke="#dc2626" points="187.5,-868 1.5,-868 1.5,-798 193.5,-798 193.5,-862 187.5,-868"/>
<polyline fill="none" stroke="#dc2626" points="187.5,-868 187.5,-862 "/>
<polyline fill="none" stroke="#dc2626" points="193.5,-862 187.5,-862 "/>
<text text-anchor="middle" x="97.5" y="-849.4" font-family="Helvetica,sans-Serif" font-size="12.00" fill="#991b1b">Desde cualquier estado:</text>
<text text-anchor="middle" x="97.5" y="-836.4" font-family="Helvetica,sans-Serif" font-size="12.00" fill="#991b1b">si paro_emergencia = 1</text>
<text text-anchor="middle" x="97.5" y="-823.4" font-family="Helvetica,sans-Serif" font-size="12.00" fill="#991b1b">ó zona_segura = 0</text>
<text text-anchor="middle" x="97.5" y="-810.4" font-family="Helvetica,sans-Serif" font-size="12.00" fill="#991b1b">→ transición inmediata a S0</text>
</g>
<!-- note&#45;&gt;S0 -->
<g id="edge11" class="edge">
<title>note&#45;&gt;S0</title>
<path fill="none" stroke="#dc2626" stroke-width="1.4" stroke-dasharray="5,2" d="M193.73,-833C212.13,-833 230.53,-833 248.93,-833"/>
<polygon fill="#dc2626" stroke="#dc2626" stroke-width="1.4" points="249.38,-835.8 257.38,-833 249.38,-830.2 249.38,-835.8"/>
</g>
</g>
</svg>
